<svg xmlns="http://www.w3.org/2000/svg" width="22.838" height="34.001" viewBox="0 0 22.838 34.001">
  <path id="kebab" d="M22.042,5.409a5.071,5.071,0,0,0-3.768-1.68h-5.36V1a1,1,0,1,0-1.991,0V3.729H5.562A5.062,5.062,0,0,0,.529,9.336l.064.6H9.985a1,1,0,1,1,0,1.991H.809l.524,4.851H8.2a1,1,0,1,1,0,1.991H1.548l.5,4.655h9.53a1,1,0,1,1,0,1.991H2.267L2.438,27a3.664,3.664,0,0,0,3.649,3.275h4.836V33a1,1,0,0,0,1.991,0V30.272H17.75A3.663,3.663,0,0,0,21.4,27l.576-5.324H16.748a1,1,0,1,1,0-1.991H22.19l.452-4.181H15.62a1,1,0,1,1,0-1.991h7.237l.451-4.174a5.073,5.073,0,0,0-1.266-3.927Zm0,0" transform="translate(-0.499 0)" fill="#b53131"/>
</svg>
