<svg xmlns="http://www.w3.org/2000/svg" xmlns:xlink="http://www.w3.org/1999/xlink" width="202.054" height="192.94" viewBox="0 0 202.054 192.94">
  <defs>
    <linearGradient id="linear-gradient" x1="0.5" y1="0.923" x2="0.5" y2="-0.187" gradientUnits="objectBoundingBox">
      <stop offset="0" stop-color="#fff"/>
      <stop offset="0.126" stop-color="#f8fbfe"/>
      <stop offset="0.305" stop-color="#318fb5" stop-opacity="0.412"/>
      <stop offset="0.516" stop-color="#318fb5" stop-opacity="0.639"/>
      <stop offset="0.752" stop-color="#318fb5" stop-opacity="0.8"/>
      <stop offset="1" stop-color="#318fb5"/>
    </linearGradient>
  </defs>
  <g id="Group_175" data-name="Group 175" transform="translate(-294.69 -83.879)">
    <path id="Path_378" data-name="Path 378" d="M337.562,272.128h116.31c25.924-17.871,42.872-47.341,42.872-80.7,0-54.519-45.231-106.551-101.027-106.551S294.69,136.911,294.69,191.43C294.69,224.787,311.638,254.257,337.562,272.128Z" transform="translate(0 0.195)" opacity="0.44" fill="url(#linear-gradient)"/>
    <path id="Path_415" data-name="Path 415" d="M83.893,0c46.333,0,83.893,1.879,83.893,4.2s-37.56,4.2-83.893,4.2S0,6.516,0,4.2,37.56,0,83.893,0Z" transform="translate(309.593 268.424)" fill="#318fb5" opacity="0.25"/>
    <g id="Group_171" data-name="Group 171" transform="translate(328.66 83.879)">
      <g id="Group_170" data-name="Group 170" transform="translate(9.319)">
        <g id="Group_168" data-name="Group 168" transform="translate(16.158 172.095)">
          <path id="Path_379" data-name="Path 379" d="M369.23,228.834l.628,3.957-2.964,3.9-7.7-3.641-.878-3.614,9.5-1.57Z" transform="translate(-341.717 -227.867)" fill="#f2bf75"/>
          <path id="Path_380" data-name="Path 380" d="M365.941,240.873l-.8-.967a.367.367,0,0,0-.567,0l-.78.941a1.652,1.652,0,0,1-1.279.6l-17.78-.059a.954.954,0,0,1-.049-1.343c2.57-2.665,16.528-7.4,17.222-7.8s5.026,2.88,10.665-.261a60.078,60.078,0,0,1,1.155,7.318,2.029,2.029,0,0,1-2.023,2.17l-4.512-.014A1.629,1.629,0,0,1,365.941,240.873Z" transform="translate(-344.427 -227.063)" fill="#1a5074"/>
        </g>
        <g id="Group_169" data-name="Group 169" transform="translate(44.648 172.255)">
          <path id="Path_381" data-name="Path 381" d="M393.067,228.968l.628,3.956-2.964,3.9-7.7-3.641-.878-3.614,9.5-1.57Z" transform="translate(-365.554 -228.001)" fill="#f2bf75"/>
          <path id="Path_382" data-name="Path 382" d="M389.778,241.007l-.8-.968a.369.369,0,0,0-.568,0l-.779.941a1.656,1.656,0,0,1-1.28.6l-17.78-.059a.955.955,0,0,1-.049-1.343c2.57-2.665,16.53-7.4,17.222-7.8s5.027,2.88,10.666-.261a60.165,60.165,0,0,1,1.153,7.318,2.029,2.029,0,0,1-2.023,2.17l-4.512-.016A1.628,1.628,0,0,1,389.778,241.007Z" transform="translate(-368.265 -227.197)" fill="#1a5074"/>
        </g>
        <path id="Path_383" data-name="Path 383" d="M361.359,121.642,355.947,142.3l-14.731-9.831-6.665,5.292,19.233,18,13.832-12.833Z" transform="translate(-330.197 -76.507)" fill="#cee5ed"/>
        <path id="Path_384" data-name="Path 384" d="M341.73,132.243l-4.286-8.458a1.77,1.77,0,0,0-2.474-.709h0a6.435,6.435,0,0,0-3.025,6.877c.581,2.7,1.563,5.9,3.142,7.576Z" transform="translate(-330.734 -76.276)" fill="#f2bf75"/>
        <path id="Path_385" data-name="Path 385" d="M336.607,117.107l-4.7-.384c-.681-.055-1.117.384-.968.975l3.333,13.207a1.772,1.772,0,0,0,1.512,1.176l4.7.382c1.095.09,1.727,2.029.969-.974l-3.333-13.207A1.768,1.768,0,0,0,336.607,117.107Z" transform="translate(-330.909 -77.468)" fill="#1e394c"/>
        <path id="Path_386" data-name="Path 386" d="M340.622,131.84l.985-3.136a1.787,1.787,0,0,0-.565-2.294l-1.633-1.133a1.164,1.164,0,0,0-1.542.19h0a1.165,1.165,0,0,0,.164,1.688l.752.583.767.578-1.82,2.748Z" transform="translate(-329.606 -75.839)" fill="#f2bf75"/>
        <path id="Path_387" data-name="Path 387" d="M398.836,244.441c0-4.616-5.362-81.45-5.362-81.45s-10.827-10.54-16.72-9.424c-5.892-1.116-19.289,6.7-19.289,6.7s.279,79.56.279,84.176h12.762s.088-36.632,5.063-63.086a1.162,1.162,0,0,1,2.254-.117c4.974,26.456,8.252,63.2,8.252,63.2Z" transform="translate(-325.725 -70.297)" fill="#1a5074"/>
        <path id="Path_388" data-name="Path 388" d="M377.208,111.2s15.066,3.687,17.15,6.091,9.917,17.39,9.777,22.439c-.165,5.911-10.3,18.527-10.1,17.791v17.8s-23.079,7.213-37.023-1.6c0,0-1.6-45.723.32-50.818.59-1.567,8.174-8.174,10.417-8.976S377.208,111.2,377.208,111.2Z" transform="translate(-325.935 -78.546)" fill="#cee5ed"/>
        <path id="Path_389" data-name="Path 389" d="M400.8,139.728c-.143,5.27-8.222,15.876-9.823,17.584l-.01.01-.264.2-5.087,4.567-6.13-5.529s11.3-8.053,9.736-18.392c-1.1-7.274-8.654-20.315-8.654-20.315a27.93,27.93,0,0,1-7.107-6.539c.264-.072.414-.11.414-.11s15.069,3.682,17.151,6.087S400.94,134.68,400.8,139.728Z" transform="translate(-322.602 -78.546)" fill="#cee5ed"/>
        <path id="Path_390" data-name="Path 390" d="M376.482,104.193v10.7s-3.486,10.7-11.54,2.284l-.722-8.535Z" transform="translate(-324.406 -79.914)" fill="#ea9249"/>
        <path id="Path_391" data-name="Path 391" d="M358.278,99.784s-13.623-2.885-5.209-14.5c0,0,1.443,6.171,8.815.882,3.758-2.7,9.331-3.37,15.547,0,6.651,3.606,8.975,14.665,3.286,20.434l-11.139-2.243Z" transform="translate(-327.118 -83.879)" fill="#1e394c"/>
        <path id="Path_392" data-name="Path 392" d="M356.99,97.683s-1.6,18.511,10.658,17.31c9.577-.939,9.216-8.174,9.216-8.174s3.125-.642,3.286-3.446-.721-5.129-3.526-3.286c0,0-4.968-3.206-5.289-5.45A31.15,31.15,0,0,1,356.99,97.683Z" transform="translate(-325.831 -81.779)" fill="#f2bf75"/>
        <path id="Path_393" data-name="Path 393" d="M370.749,165.147a1.964,1.964,0,0,0,.5,2.713l2.078,1.683a1.963,1.963,0,0,0,2.757-.071l6.527-8.125-6.243-4.8-6.788,4.794a.834.834,0,0,0,.02,1.376,1.58,1.58,0,0,0,1.125.232,2.778,2.778,0,0,0,1.8-.92Z" transform="translate(-323.428 -69.694)" fill="#f6ba8e"/>
        <path id="Path_394" data-name="Path 394" d="M374.219,164.218l7.287,5.866s19.8-21.9,19.881-30.276c.045-4.709-5.675-16.048-9.257-22.165H379.3s9.153,13.778,11.915,20.388a4,4,0,0,1-.4,3.812C387.473,146.715,377.6,160.968,374.219,164.218Z" transform="translate(-322.454 -77.288)" fill="#cee5ed"/>
        <path id="Path_395" data-name="Path 395" d="M391.278,117.643s7.312,18.131,7.278,21.767c-.071,7.209-15.89,24.356-19.971,29.008l2.069,1.666s19.8-21.9,19.881-30.276C400.58,135.1,394.86,123.76,391.278,117.643Z" transform="translate(-321.602 -77.288)" fill="#b4ccd3"/>
        <path id="Path_396" data-name="Path 396" d="M362.379,111.807a7.256,7.256,0,0,1-1.494-3.847,5.535,5.535,0,0,1-1.643-.186c-.186-.186.448-5.3.336-6.2-.079-.632-.411-3.1-.6-4.445a19.143,19.143,0,0,1-1.99.068s-1.6,18.511,10.658,17.31C364.663,114.555,363.687,113.189,362.379,111.807Z" transform="translate(-325.831 -81.293)" fill="#ea9249"/>
      </g>
      <path id="Path_397" data-name="Path 397" d="M343.775,103.913a10.413,10.413,0,1,0-8.681,12.136l2.136,2.46.441-3.2A10.416,10.416,0,0,0,343.775,103.913Zm-15.562,2.811a1.282,1.282,0,1,1,1.282-1.282A1.282,1.282,0,0,1,328.213,106.724Zm5.167,0a1.282,1.282,0,1,1,1.282-1.282A1.283,1.283,0,0,1,333.38,106.724Zm5.1,0a1.282,1.282,0,1,1,1.284-1.282A1.283,1.283,0,0,1,338.484,106.724Z" transform="translate(-323.112 -81.641)" fill="#318fb5"/>
    </g>
    <g id="Group_174" data-name="Group 174" transform="translate(421.214 193.31)">
      <g id="Group_172" data-name="Group 172" transform="translate(0 0)">
        <path id="Path_398" data-name="Path 398" d="M444.879,199.063c3.768-3.993,4.7-9.234,2.082-11.706s-7.8-1.238-11.565,2.755-6.452,11.088-3.833,13.56S441.111,203.055,444.879,199.063Z" transform="translate(-394.7 -173.359)" fill="#318fb5"/>
        <path id="Path_399" data-name="Path 399" d="M446.8,187.354a4.85,4.85,0,0,0-3.059-1.257,4.3,4.3,0,0,1,.366.3c2.619,2.472,1.686,7.711-2.082,11.7-2.835,3-7.458,5.494-10.69,5.492.024.024.041.055.067.079,2.619,2.472,9.547-.617,13.316-4.61S449.42,189.826,446.8,187.354Z" transform="translate(-394.54 -173.356)" fill="#0f2a3f" opacity="0.26"/>
        <path id="Path_400" data-name="Path 400" d="M428.483,185.77c.5-5.387-1.782-10.005-5.1-10.316s-6.425,3.8-6.929,9.19,1.547,12.507,4.869,12.817S427.978,191.155,428.483,185.77Z" transform="translate(-397.461 -175.437)" fill="#1a5074"/>
        <path id="Path_401" data-name="Path 401" d="M422.765,175.454a3.974,3.974,0,0,0-1.821.269c2.726,1.091,4.482,5.262,4.034,10.047-.417,4.459-2.778,9.752-5.463,11.267a2.677,2.677,0,0,0,1.192.424c3.324.312,6.66-6.306,7.164-11.691S426.088,175.764,422.765,175.454Z" transform="translate(-396.848 -175.437)" fill="#34648c" opacity="0.25"/>
        <path id="Path_402" data-name="Path 402" d="M414.871,181.606c-2.3-4.537-6.441-7.061-9.24-5.64s-3.2,6.252-.9,10.788,7.512,9.17,10.311,7.747S417.175,186.142,414.871,181.606Z" transform="translate(-400.025 -175.411)" fill="#318fb5"/>
        <path id="Path_403" data-name="Path 403" d="M414.83,181.606c-2.3-4.537-6.441-7.061-9.24-5.64a4.371,4.371,0,0,0-2.139,2.926,3.586,3.586,0,0,1,.857-.617c2.8-1.422,6.936,1.1,9.24,5.639,1.617,3.184,2.424,7.545,1.8,10.358C417.734,192.467,417.034,185.944,414.83,181.606Z" transform="translate(-399.984 -175.411)" fill="#0f2a3f" opacity="0.26"/>
        <path id="Path_404" data-name="Path 404" d="M410.945,196.682c-4.441-1.989-8.976-1.518-10.127,1.053s1.517,6.266,5.958,8.255,11.04,2.443,12.191-.127S415.386,198.672,410.945,196.682Z" transform="translate(-400.55 -171.53)" fill="#1a5074"/>
        <path id="Path_405" data-name="Path 405" d="M410.944,196.682c-4.441-1.989-8.976-1.518-10.127,1.053a3.3,3.3,0,0,0-.2,1.951c1.226-2.478,5.69-2.913,10.07-.951,3.575,1.6,7.331,4.905,8.064,7.475a2.079,2.079,0,0,0,.215-.345C420.117,203.293,415.385,198.672,410.944,196.682Z" transform="translate(-400.549 -171.53)" fill="#34648c" opacity="0.25"/>
        <path id="Path_406" data-name="Path 406" d="M445.531,211.437c4.434-1.58,7.189-5.217,6.153-8.126s-5.47-3.986-9.9-2.406-9.25,5.951-8.215,8.86S441.1,213.016,445.531,211.437Z" transform="translate(-394.133 -170.608)" fill="#318fb5"/>
        <path id="Path_407" data-name="Path 407" d="M451.55,203.234a4.569,4.569,0,0,0-2.941-2.663,3.915,3.915,0,0,1,1.146,1.637c1.036,2.908-1.719,6.546-6.153,8.126a15.859,15.859,0,0,1-9.5.362c2.031,1.954,7.437,2.035,11.291.663C449.831,209.78,452.586,206.143,451.55,203.234Z" transform="translate(-394 -170.531)" fill="#0f2a3f" opacity="0.26"/>
        <path id="Path_408" data-name="Path 408" d="M424.379,228.432a50.3,50.3,0,0,1,15.76-32.788c.361-.341-.184-.884-.544-.544a51.11,51.11,0,0,0-15.986,33.332c-.039.494.73.49.77,0Z" transform="translate(-396.049 -171.62)" fill="#1e394c"/>
        <path id="Path_409" data-name="Path 409" d="M424.327,228.492a67.684,67.684,0,0,0-14.052-42.847c-.3-.387-.966,0-.665.388a67.032,67.032,0,0,1,13.947,42.458.385.385,0,0,0,.77,0Z" transform="translate(-398.796 -173.476)" fill="#1e394c"/>
        <path id="Path_410" data-name="Path 410" d="M419.314,206.01c2.1-6.684,2.634-13.782,2.891-20.748.018-.495-.752-.495-.77,0-.255,6.9-.785,13.919-2.864,20.543-.148.473.594.675.742.2Z" transform="translate(-397.036 -173.592)" fill="#1e394c"/>
        <path id="Path_411" data-name="Path 411" d="M409.215,201.6a68.931,68.931,0,0,0,12.106,5.651c.464.176.663-.569.2-.742a67.966,67.966,0,0,1-11.922-5.573c-.421-.264-.807.4-.388.665Z" transform="translate(-398.894 -170.471)" fill="#1e394c"/>
        <path id="Path_412" data-name="Path 412" d="M438.516,206.5a82.235,82.235,0,0,1-11.388,3.8.385.385,0,0,0,.2.742,82.239,82.239,0,0,0,11.388-3.8c.451-.189.253-.933-.2-.742Z" transform="translate(-395.415 -169.379)" fill="#1e394c"/>
      </g>
      <g id="Group_173" data-name="Group 173" transform="translate(12.62 51.078)">
        <path id="Path_413" data-name="Path 413" d="M411.121,220.332l2.338,21.166a5.223,5.223,0,0,0,5.191,4.648h13.491a5.222,5.222,0,0,0,5.191-4.648l2.338-21.166a1.945,1.945,0,0,0-1.933-2.159H413.055A1.945,1.945,0,0,0,411.121,220.332Z" transform="translate(-411.109 -218.173)" fill="#cee5ed"/>
        <path id="Path_414" data-name="Path 414" d="M435.7,218.173h-8.559a1.945,1.945,0,0,1,1.934,2.159L426.737,241.5a5.223,5.223,0,0,1-5.191,4.648H430.1a5.222,5.222,0,0,0,5.191-4.648l2.338-21.166A1.945,1.945,0,0,0,435.7,218.173Z" transform="translate(-409.072 -218.173)" fill="#aac6ce"/>
      </g>
    </g>
  </g>
</svg>
