<svg id="at" xmlns="http://www.w3.org/2000/svg" width="18.271" height="18.271" viewBox="0 0 18.271 18.271">
  <g id="Group_164" data-name="Group 164" transform="translate(7.566 7.494)">
    <g id="Group_163" data-name="Group 163">
      <path id="Path_375" data-name="Path 375" d="M213.606,210a1.606,1.606,0,1,0,1.606,1.606A1.608,1.608,0,0,0,213.606,210Z" transform="translate(-212 -210)" fill="#161616"/>
    </g>
  </g>
  <g id="Group_166" data-name="Group 166">
    <g id="Group_165" data-name="Group 165">
      <path id="Path_376" data-name="Path 376" d="M9.1,0a9.136,9.136,0,0,0,0,18.271A9.233,9.233,0,0,0,18.271,9.1,9.172,9.172,0,0,0,9.1,0Zm3.818,11.777a2.137,2.137,0,0,1-1.749-.913,2.678,2.678,0,1,1-.392-3.891V6.959a.535.535,0,0,1,1.071,0V9.635a1.071,1.071,0,1,0,2.141,0c0-3.583-2.371-5.353-4.818-5.353a4.818,4.818,0,1,0,0,9.635,4.766,4.766,0,0,0,2.928-.992.535.535,0,0,1,.652.849,5.831,5.831,0,0,1-3.581,1.214,5.888,5.888,0,0,1,0-11.777c2.958,0,5.888,2.182,5.888,6.424A2.143,2.143,0,0,1,12.919,11.777Z" fill="#161616"/>
    </g>
  </g>
</svg>
