<svg id="burger" xmlns="http://www.w3.org/2000/svg" width="30.762" height="28.538" viewBox="0 0 30.762 28.538">
  <g id="Burger_1_">
    <g id="Group_228" data-name="Group 228" transform="translate(0 21.328)">
      <path id="Path_433" data-name="Path 433" d="M24.454,399.21H6.309A6.316,6.316,0,0,1,0,392.9a.9.9,0,0,1,.9-.9h28.96a.9.9,0,0,1,.9.9A6.316,6.316,0,0,1,24.454,399.21Z" transform="translate(0 -392)" fill="#b53131"/>
    </g>
    <g id="Group_229" data-name="Group 229">
      <path id="Path_434" data-name="Path 434" d="M15.381,0C6.933,0,0,5.256,0,11.716a.9.9,0,0,0,.9.9h28.96a.9.9,0,0,0,.9-.9C30.762,5.256,23.829,0,15.381,0ZM8.748,6.946l-1.8,1.8A.9.9,0,0,1,5.671,7.474l1.8-1.8A.9.9,0,0,1,8.748,6.946Zm5.468,0-1.8,1.8a.9.9,0,0,1-1.274-1.274l1.8-1.8a.9.9,0,0,1,1.274,1.274Zm5.407,0-1.8,1.8a.9.9,0,0,1-1.274-1.274l1.8-1.8a.9.9,0,0,1,1.274,1.274Zm4.967,0-1.8,1.8a.9.9,0,0,1-1.274-1.274l1.8-1.8A.9.9,0,0,1,24.59,6.946Z" fill="#b53131"/>
    </g>
  </g>
  <g id="Burger_4_" transform="translate(0 15.026)">
    <g id="Group_230" data-name="Group 230">
      <path id="Path_435" data-name="Path 435" d="M.9,271a4.242,4.242,0,0,1,1.136.144,5.86,5.86,0,0,0-.234,1.8,2.478,2.478,0,0,0-.9-.144.9.9,0,1,1,0-1.8Z" transform="translate(0 -271)" fill="#b53131"/>
      <path id="Path_436" data-name="Path 436" d="M480.137,271.9a.892.892,0,0,1-.9.9,2.478,2.478,0,0,0-.9.144,6.235,6.235,0,0,0-.234-1.8,4.243,4.243,0,0,1,1.136-.144A.892.892,0,0,1,480.137,271.9Z" transform="translate(-449.374 -271)" fill="#b53131"/>
    </g>
  </g>
  <path id="Path_437" data-name="Path 437" d="M33.9,242.946a4.692,4.692,0,0,1,1.8.937,2.723,2.723,0,0,0,1.875.721,2.677,2.677,0,0,0,1.857-.721,4.589,4.589,0,0,1,3-1.081,4.423,4.423,0,0,1,2.956,1.081,2.751,2.751,0,0,0,3.713,0,4.423,4.423,0,0,1,2.956-1.081,4.589,4.589,0,0,1,3,1.081,2.677,2.677,0,0,0,1.857.721,2.723,2.723,0,0,0,1.875-.721,4.693,4.693,0,0,1,1.8-.937A6.239,6.239,0,0,0,59.675,241H34.814A6.239,6.239,0,0,0,33.9,242.946Z" transform="translate(-31.863 -227.705)" fill="#b53131"/>
  <path id="Path_438" data-name="Path 438" d="M56.02,304.6a6.246,6.246,0,0,0,1.136-3.461,3.755,3.755,0,0,0-.955.577,4.556,4.556,0,0,1-5.894,0A2.833,2.833,0,0,0,48.39,301a2.723,2.723,0,0,0-1.875.721,4.531,4.531,0,0,1-5.876,0A2.723,2.723,0,0,0,38.765,301a2.833,2.833,0,0,0-1.917.721,4.556,4.556,0,0,1-5.894,0,3.755,3.755,0,0,0-.955-.577,6.246,6.246,0,0,0,1.136,3.461Z" transform="translate(-28.197 -284.396)" fill="#b53131"/>
</svg>
