<svg xmlns="http://www.w3.org/2000/svg" width="31.677" height="31.678" viewBox="0 0 31.677 31.678">
  <g id="coffee-breaks" transform="translate(0 0.001)">
    <path id="Path_428" data-name="Path 428" d="M8.319,7.919A.989.989,0,0,1,7.67,6.183.8.8,0,0,0,7.976,5.5a.914.914,0,0,0-.491-.684A2.867,2.867,0,0,1,6.012,2.607,2.765,2.765,0,0,1,6.991.243a.99.99,0,1,1,1.3,1.494.8.8,0,0,0-.306.682.916.916,0,0,0,.492.684A2.868,2.868,0,0,1,9.948,5.313a2.769,2.769,0,0,1-.979,2.365,1,1,0,0,1-.649.242Z" transform="translate(1.919 0)" fill="#b53131"/>
    <path id="Path_429" data-name="Path 429" d="M13.319,7.92a.989.989,0,0,1-.649-1.737.8.8,0,0,0,.306-.682.916.916,0,0,0-.492-.684,2.868,2.868,0,0,1-1.472-2.209A2.769,2.769,0,0,1,11.991.242a.99.99,0,0,1,1.3,1.5.8.8,0,0,0-.306.682.916.916,0,0,0,.492.684,2.868,2.868,0,0,1,1.472,2.209,2.769,2.769,0,0,1-.979,2.365.991.991,0,0,1-.648.242Z" transform="translate(3.518 0)" fill="#b53131"/>
    <path id="Path_430" data-name="Path 430" d="M22.768,25.439H3.63A3.633,3.633,0,0,1,0,21.81V20.49a.99.99,0,0,1,.99-.99H25.407a.99.99,0,0,1,.99.99v1.32A3.633,3.633,0,0,1,22.768,25.439Z" transform="translate(0 6.238)" fill="#b53131"/>
    <path id="Path_431" data-name="Path 431" d="M4.685,22.019h16.4a11.71,11.71,0,0,0,1.894-2.332,1.013,1.013,0,0,0,.092-.131,11.939,11.939,0,0,0,1.684-6.116V8.49a.99.99,0,0,0-.99-.99H1.99A.99.99,0,0,0,1,8.49v4.949A11.838,11.838,0,0,0,4.685,22.019Z" transform="translate(0.32 2.399)" fill="#b53131"/>
    <path id="Path_432" data-name="Path 432" d="M20.476,9.25v2.64a2.642,2.642,0,0,1,2.64,2.64,2.645,2.645,0,0,1-2.64,2.64h-.743a13.185,13.185,0,0,1-1.127,2.5c-.028.048-.061.091-.092.137h1.963a5.286,5.286,0,0,0,5.279-5.279A5.285,5.285,0,0,0,20.476,9.25Z" transform="translate(5.922 2.959)" fill="#b53131"/>
  </g>
</svg>
