<svg xmlns="http://www.w3.org/2000/svg" width="14.46" height="11.907" viewBox="0 0 14.46 11.907">
  <path id="comment" d="M11.495.5H2.965A2.969,2.969,0,0,0,0,3.465v4.58a2.918,2.918,0,0,0,2.1,2.8L3.53,12.283a.424.424,0,0,0,.6,0l1.314-1.314h6.052A2.969,2.969,0,0,0,14.46,8V3.465A2.969,2.969,0,0,0,11.495.5ZM4.117,6.483a.424.424,0,0,1,.424-.424H9.92a.424.424,0,1,1,0,.847H4.54a.424.424,0,0,1-.424-.424Zm5.8-1.074H4.54a.424.424,0,1,1,0-.847H9.92a.424.424,0,1,1,0,.847Zm0,0" transform="translate(0 -0.5)" fill="#b2b2b2"/>
</svg>
