<svg id="comment1" xmlns="http://www.w3.org/2000/svg" width="28.331" height="28.331" viewBox="0 0 28.331 28.331">
  <path id="Path_367" data-name="Path 367" d="M170.044,160.88A11.652,11.652,0,0,0,169,144.58a13.323,13.323,0,0,1-12.8,16.955c-.17,0,.855.006-3.181-.019a11.606,11.606,0,0,0,8.216,3.394l10.821-.055a.831.831,0,0,0,.579-1.421Z" transform="translate(-144.549 -136.58)" fill="#747474"/>
  <path id="Path_368" data-name="Path 368" d="M11.647,23.3a11.646,11.646,0,1,0-8.812-4.03L.247,21.819A.831.831,0,0,0,.827,23.24ZM6.7,7.525h9.959a.83.83,0,0,1,0,1.66H6.7a.83.83,0,0,1,0-1.66Zm0,3.32h9.959a.83.83,0,0,1,0,1.66H6.7a.83.83,0,0,1,0-1.66ZM5.865,15a.83.83,0,0,1,.83-.83h9.959a.83.83,0,0,1,0,1.66H6.7a.83.83,0,0,1-.83-.83Z" transform="translate(0)" fill="#747474"/>
</svg>
