<svg xmlns="http://www.w3.org/2000/svg" width="13.68" height="13.679" viewBox="0 0 13.68 13.679">
  <g id="edit_1_" data-name="edit (1)" transform="translate(0 -0.004)">
    <g id="Group_154" data-name="Group 154" transform="translate(0 0.981)">
      <g id="Group_153" data-name="Group 153">
        <path id="Path_370" data-name="Path 370" d="M11.237,40a.489.489,0,0,0-.489.489v4.886a.489.489,0,0,1-.489.489H1.466a.489.489,0,0,1-.489-.489V35.6a.489.489,0,0,1,.489-.489H7.328a.489.489,0,1,0,0-.977H1.466A1.466,1.466,0,0,0,0,35.6v9.771a1.466,1.466,0,0,0,1.466,1.466H10.26a1.466,1.466,0,0,0,1.466-1.466V40.488A.489.489,0,0,0,11.237,40Z" transform="translate(0 -34.137)" fill="#161616"/>
      </g>
    </g>
    <g id="Group_156" data-name="Group 156" transform="translate(2.932 0.004)">
      <g id="Group_155" data-name="Group 155" transform="translate(0 0)">
        <path id="Path_371" data-name="Path 371" d="M112.609.552a1.87,1.87,0,0,0-2.645,0l-6.435,6.435a.494.494,0,0,0-.118.191l-.977,2.931a.489.489,0,0,0,.463.643.5.5,0,0,0,.154-.025l2.931-.977a.489.489,0,0,0,.191-.118L112.609,3.2A1.87,1.87,0,0,0,112.609.552Z" transform="translate(-102.409 -0.004)" fill="#161616"/>
      </g>
    </g>
  </g>
</svg>
