<svg id="gallery" xmlns="http://www.w3.org/2000/svg" width="28.916" height="24.983" viewBox="0 0 28.916 24.983">
  <g id="Group_124" data-name="Group 124">
    <g id="Group_123" data-name="Group 123">
      <path id="Path_336" data-name="Path 336" d="M14.98,243.733a3.657,3.657,0,0,1-2.3-.856l-4.241-3.735a1.867,1.867,0,0,0-2.412-.117L0,243.461v2.879a1.4,1.4,0,0,0,1.32,1.477c.04,0,.08,0,.12,0H22.8a1.638,1.638,0,0,0,1.712-1.478v-7.547l-7.664,4.435A3.54,3.54,0,0,1,14.98,243.733Z" transform="translate(0 -222.835)" fill="#318fb5"/>
      <circle id="Ellipse_14" data-name="Ellipse 14" cx="1.712" cy="1.712" r="1.712" transform="translate(12.957 9.927)" fill="#318fb5"/>
      <path id="Path_337" data-name="Path 337" d="M80.809,29.444a1.44,1.44,0,0,0-1.05-.584l-21.2-2.451a1.549,1.549,0,0,0-1.751,1.323l-.35,3.035h18.6A3.346,3.346,0,0,1,78.319,34V47.729c0-.078.35-.156.506-.311a1.323,1.323,0,0,0,.506-1.05l1.828-15.8A1.518,1.518,0,0,0,80.809,29.444Z" transform="translate(-52.251 -26.403)" fill="#318fb5"/>
      <path id="Path_338" data-name="Path 338" d="M22.828,105.9H1.469A1.57,1.57,0,0,0,.03,107.572V118.66l5.135-3.735a3.424,3.424,0,0,1,4.318.195l4.279,3.735a1.984,1.984,0,0,0,2.3.195l8.481-4.941v-6.536A1.789,1.789,0,0,0,22.828,105.9ZM14.7,114.886a3.268,3.268,0,1,1,3.268-3.268A3.268,3.268,0,0,1,14.7,114.886Z" transform="translate(-0.028 -99.979)" fill="#318fb5"/>
    </g>
  </g>
</svg>
