<svg id="global" xmlns="http://www.w3.org/2000/svg" width="21.961" height="21.999" viewBox="0 0 21.961 21.999">
  <path id="Path_317" data-name="Path 317" d="M184.76,3.582A12.105,12.105,0,0,0,182.722.028Q182.33,0,181.934,0t-.788.028a12.094,12.094,0,0,0-2.038,3.554q-.267.692-.479,1.432h6.611Q185.026,4.275,184.76,3.582Zm0,0" transform="translate(-170.953 0)"/>
  <path id="Path_318" data-name="Path 318" d="M160.488,275.052h7.257a22.187,22.187,0,0,0,.477-4.053h-8.21a22.186,22.186,0,0,0,.477,4.053Zm0,0" transform="translate(-153.137 -259.355)"/>
  <path id="Path_319" data-name="Path 319" d="M167.746,146.684h-7.257a22.187,22.187,0,0,0-.477,4.053h8.21a22.185,22.185,0,0,0-.476-4.053Zm0,0" transform="translate(-153.137 -140.381)"/>
  <path id="Path_320" data-name="Path 320" d="M179.108,396.748a12.1,12.1,0,0,0,2.038,3.554q.392.028.788.028t.788-.028a12.1,12.1,0,0,0,2.038-3.554q.267-.692.479-1.432h-6.61Q178.841,396.055,179.108,396.748Zm0,0" transform="translate(-170.953 -378.331)"/>
  <path id="Path_321" data-name="Path 321" d="M370.594,146.662a23.618,23.618,0,0,1,.452,4.053h5.586a10.927,10.927,0,0,0-1.028-4.054h-5.009Zm0,0" transform="translate(-354.671 -140.359)"/>
  <path id="Path_322" data-name="Path 322" d="M6.038,275.052A23.6,23.6,0,0,1,5.586,271H0a10.928,10.928,0,0,0,1.028,4.054H6.038Zm0,0" transform="translate(0 -259.355)"/>
  <path id="Path_323" data-name="Path 323" d="M318.227,395.316a16.241,16.241,0,0,1-2.035,4.7,10.93,10.93,0,0,0,5.172-2.912,11.1,11.1,0,0,0,1.454-1.792Zm0,0" transform="translate(-302.606 -378.33)"/>
  <path id="Path_324" data-name="Path 324" d="M45.294,11.9a16.245,16.245,0,0,1,2.035-4.7,10.931,10.931,0,0,0-5.173,2.912A11.106,11.106,0,0,0,40.7,11.9Zm0,0" transform="translate(-38.954 -6.891)"/>
  <path id="Path_325" data-name="Path 325" d="M45.294,395.316H40.7a11.112,11.112,0,0,0,1.454,1.792,10.931,10.931,0,0,0,5.172,2.912,16.249,16.249,0,0,1-2.035-4.7Zm0,0" transform="translate(-38.954 -378.33)"/>
  <path id="Path_326" data-name="Path 326" d="M318.227,11.9h4.591a11.1,11.1,0,0,0-1.453-1.792A10.931,10.931,0,0,0,316.192,7.2a16.238,16.238,0,0,1,2.035,4.7Zm0,0" transform="translate(-302.606 -6.89)"/>
  <path id="Path_327" data-name="Path 327" d="M371.046,271a23.605,23.605,0,0,1-.451,4.053H375.6A10.927,10.927,0,0,0,376.632,271Zm0,0" transform="translate(-354.671 -259.356)"/>
  <path id="Path_328" data-name="Path 328" d="M5.586,150.714a23.6,23.6,0,0,1,.452-4.053H1.029A10.927,10.927,0,0,0,0,150.714Zm0,0" transform="translate(0 -140.359)"/>
</svg>
