<svg xmlns="http://www.w3.org/2000/svg" width="20" height="20" viewBox="0 0 20 20">
  <g id="Group_161" data-name="Group 161" transform="translate(-131.108 -312.108)">
    <g id="user" transform="translate(131.108 312.108)">
      <g id="Group_160" data-name="Group 160">
        <g id="Group_159" data-name="Group 159">
          <path id="Path_373" data-name="Path 373" d="M19.51,8.25,17.954,8a8.124,8.124,0,0,0-.914-2.2l.895-1.254a.586.586,0,0,0-.062-.755L16.215,2.128a.584.584,0,0,0-.755-.062l-1.254.895A8.123,8.123,0,0,0,12,2.046L11.75.49A.586.586,0,0,0,11.172,0H8.828A.586.586,0,0,0,8.25.49L8,2.046a8.124,8.124,0,0,0-2.2.914L4.54,2.066a.584.584,0,0,0-.755.062L2.128,3.785a.586.586,0,0,0-.062.755l.895,1.254A8.123,8.123,0,0,0,2.046,8L.49,8.25A.586.586,0,0,0,0,8.828v2.344a.586.586,0,0,0,.49.578L2.046,12a8.124,8.124,0,0,0,.914,2.2L2.066,15.46a.586.586,0,0,0,.062.755l1.657,1.657a.588.588,0,0,0,.755.062l1.254-.895a8.123,8.123,0,0,0,2.2.914L8.25,19.51a.586.586,0,0,0,.578.49h2.344a.586.586,0,0,0,.578-.49L12,17.954a8.124,8.124,0,0,0,2.2-.914l1.254.895a.588.588,0,0,0,.755-.062l1.657-1.657a.586.586,0,0,0,.062-.755l-.895-1.254a8.123,8.123,0,0,0,.914-2.2l1.557-.253a.586.586,0,0,0,.49-.578V8.828A.586.586,0,0,0,19.51,8.25ZM10,16.445A6.445,6.445,0,1,1,16.445,10,6.453,6.453,0,0,1,10,16.445Z" fill="#161616"/>
        </g>
      </g>
    </g>
    <g id="person" transform="translate(137.133 319.617)">
      <path id="Path_306" data-name="Path 306" d="M88.066,228.82a5.478,5.478,0,0,0-1.185-3.455,3.611,3.611,0,0,0-5.655,0,5.476,5.476,0,0,0-1.185,3.45,9.778,9.778,0,0,0,4.013,1.023A8.929,8.929,0,0,0,88.066,228.82Z" transform="translate(-80.04 -219.621)" fill="#161616"/>
      <circle id="Ellipse_2" data-name="Ellipse 2" cx="2.007" cy="2.007" r="2.007" transform="translate(2.006 0)" fill="#161616"/>
    </g>
  </g>
</svg>
