<svg xmlns="http://www.w3.org/2000/svg" width="17.062" height="17.064" viewBox="0 0 17.062 17.064">
  <path id="home-run" d="M16.6,7.421h0L9.642.46A1.571,1.571,0,0,0,7.42.46L.463,7.416l-.007.007A1.57,1.57,0,0,0,1.5,10.1l.048,0h.277v5.122a1.841,1.841,0,0,0,1.839,1.838H6.389a.5.5,0,0,0,.5-.5V12.547a.84.84,0,0,1,.839-.839H9.334a.84.84,0,0,1,.839.839v4.016a.5.5,0,0,0,.5.5H13.4a1.841,1.841,0,0,0,1.839-1.838V10.1h.257A1.571,1.571,0,0,0,16.6,7.421Zm0,0" transform="translate(0 0.001)" fill="#161616"/>
</svg>
