<svg id="instagram_1_" data-name="instagram (1)" xmlns="http://www.w3.org/2000/svg" width="20.759" height="20.759" viewBox="0 0 20.759 20.759">
  <path id="Path_331" data-name="Path 331" d="M15.138,0H5.618A5.625,5.625,0,0,0,0,5.619v9.52a5.625,5.625,0,0,0,5.619,5.619h9.52a5.625,5.625,0,0,0,5.619-5.619V5.619A5.625,5.625,0,0,0,15.138,0Zm-4.76,16.055a5.676,5.676,0,1,1,5.676-5.676A5.682,5.682,0,0,1,10.378,16.055ZM16.19,6.042a1.677,1.677,0,1,1,1.677-1.677A1.679,1.679,0,0,1,16.19,6.042Zm0,0" transform="translate(0.001 0)" fill="#161616"/>
  <path id="Path_332" data-name="Path 332" d="M150.479,146.02a4.459,4.459,0,1,0,4.459,4.459A4.464,4.464,0,0,0,150.479,146.02Zm0,0" transform="translate(-140.1 -140.1)" fill="#161616"/>
  <path id="Path_333" data-name="Path 333" d="M388.453,96.3a.46.46,0,1,0,.46.46A.461.461,0,0,0,388.453,96.3Zm0,0" transform="translate(-372.262 -92.396)" fill="#161616"/>
</svg>
