<svg xmlns="http://www.w3.org/2000/svg" width="25.4" height="42.021" viewBox="0 0 25.4 42.021">
  <g id="Group_98" data-name="Group 98" transform="translate(-165 -81.979)">
    <g id="marker" transform="translate(107.751 81.979)">
      <g id="Group_2" data-name="Group 2" transform="translate(57.249)">
        <path id="Path_279" data-name="Path 279" d="M69.949,0h0a12.684,12.684,0,0,0-12.7,12.7,13.809,13.809,0,0,0,1.871,6.711L67.4,33.736a2.9,2.9,0,0,0,2.552,1.4,2.96,2.96,0,0,0,2.552-1.4L80.778,19.42a13.591,13.591,0,0,0,1.871-6.712A12.692,12.692,0,0,0,69.949,0Zm0,16.451a4.636,4.636,0,1,1,4.636-4.636A4.647,4.647,0,0,1,69.949,16.451Z" transform="translate(-57.249 0)" fill="#f62727"/>
      </g>
    </g>
    <circle id="Ellipse_10" data-name="Ellipse 10" cx="2.5" cy="2.5" r="2.5" transform="translate(175 119)" fill="#f62727"/>
  </g>
</svg>
