<svg id="Group_16" data-name="Group 16" xmlns="http://www.w3.org/2000/svg" width="13.17" height="16.651" viewBox="0 0 13.17 16.651">
  <path id="Path_307" data-name="Path 307" d="M204.272,0a1.734,1.734,0,0,0-1.734,1.734,1.724,1.724,0,0,0,.023.248.347.347,0,0,0,.347.3.354.354,0,0,0,.1-.014,4.476,4.476,0,0,1,2.54,0,.355.355,0,0,0,.287-.052.37.37,0,0,0,.158-.253,1.567,1.567,0,0,0,.021-.228A1.734,1.734,0,0,0,204.275,0Z" transform="translate(-197.691 0)" fill="#161616"/>
  <path id="Path_308" data-name="Path 308" d="M185.714,426.667h-4.163a.347.347,0,0,0-.347.347,2.428,2.428,0,0,0,4.856,0A.347.347,0,0,0,185.714,426.667Z" transform="translate(-177.051 -412.791)" fill="#161616"/>
  <path id="Path_309" data-name="Path 309" d="M66.554,54.138c-.11-.242-.248-.513-.4-.811A11.3,11.3,0,0,1,64.6,48.1c0-2.749-1.457-4.767-3.71-5.14a4.435,4.435,0,0,0-3.651,1.064,4.871,4.871,0,0,0-1.665,3.83,11.078,11.078,0,0,1-1.549,5.486c-.149.294-.285.562-.393.8a1.371,1.371,0,0,0,1.255,1.937H65.3a1.371,1.371,0,0,0,1.253-1.936h0Z" transform="translate(-53.506 -41.505)" fill="#161616"/>
</svg>
