<svg xmlns="http://www.w3.org/2000/svg" width="18.005" height="18.027" viewBox="0 0 18.005 18.027">
  <g id="phone" transform="translate(3.599) rotate(14)">
    <g id="Group_111" data-name="Group 111" transform="translate(0 0)">
      <path id="Path_335" data-name="Path 335" d="M14.457,10.919,12.381,8.842a1.381,1.381,0,0,0-2.3.519,1.413,1.413,0,0,1-1.631.89A6.4,6.4,0,0,1,4.6,6.4a1.344,1.344,0,0,1,.89-1.631A1.381,1.381,0,0,0,6,2.465L3.928.389a1.481,1.481,0,0,0-2,0L.517,1.8C-.892,3.281.665,7.211,4.15,10.7s7.415,5.116,8.9,3.633l1.409-1.409A1.481,1.481,0,0,0,14.457,10.919Z" fill="#161616"/>
    </g>
  </g>
</svg>
