<svg id="photograph" xmlns="http://www.w3.org/2000/svg" width="27.002" height="23.402" viewBox="0 0 27.002 23.402">
  <g id="Group_125" data-name="Group 125" transform="translate(0 0)">
    <path id="Path_339" data-name="Path 339" d="M25.947,41.2A3.469,3.469,0,0,0,23.4,40.14h-3.15l-.717-1.912a2.612,2.612,0,0,0-.978-1.188,2.5,2.5,0,0,0-1.456-.5H9.9a2.5,2.5,0,0,0-1.456.5,2.613,2.613,0,0,0-.977,1.188L6.75,40.14H3.6A3.469,3.469,0,0,0,1.055,41.2,3.469,3.469,0,0,0,0,43.741v12.6a3.468,3.468,0,0,0,1.055,2.545A3.469,3.469,0,0,0,3.6,59.942H23.4a3.6,3.6,0,0,0,3.6-3.6v-12.6A3.468,3.468,0,0,0,25.947,41.2Zm-8,13.3a6.068,6.068,0,0,1-4.451,1.85,6.068,6.068,0,0,1-4.451-1.85,6.281,6.281,0,0,1,0-8.9A6.067,6.067,0,0,1,13.5,43.741a6.068,6.068,0,0,1,4.451,1.849,6.281,6.281,0,0,1,0,8.9Z" transform="translate(0 -36.54)" fill="#fff"/>
    <path id="Path_340" data-name="Path 340" d="M195.906,228.4a4.058,4.058,0,1,0,2.862,1.189A3.9,3.9,0,0,0,195.906,228.4Z" transform="translate(-182.406 -218.952)" fill="#fff"/>
  </g>
</svg>
