<svg xmlns="http://www.w3.org/2000/svg" width="20.611" height="20.671" viewBox="0 0 20.611 20.671">
  <g id="search" transform="translate(1.309 -0.117) rotate(7)">
    <g id="Group_1" data-name="Group 1" transform="translate(0.96)">
      <path id="Path_277" data-name="Path 277" d="M18.823,14.623l-3.054-3.054a8.426,8.426,0,0,0,.926-3.7,7.867,7.867,0,1,0-7.867,7.867,8.426,8.426,0,0,0,3.7-.926l3.054,3.054a2.237,2.237,0,0,0,3.239,0A2.412,2.412,0,0,0,18.823,14.623Zm-10-.74a6.016,6.016,0,1,1,6.016-6.016A6,6,0,0,1,8.827,13.883Z" transform="translate(-0.96)" fill="#161616"/>
    </g>
  </g>
</svg>
