<svg id="star" xmlns="http://www.w3.org/2000/svg" width="13.688" height="13.058" viewBox="0 0 13.688 13.058">
  <path id="Path_304" data-name="Path 304" d="M.02,16.753a.4.4,0,0,1,.324-.273l4.243-.617,1.9-3.845a.4.4,0,0,1,.719,0l1.9,3.845,4.243.617a.4.4,0,0,1,.222.684L10.5,20.157l.725,4.226a.4.4,0,0,1-.582.423l-3.8-2-3.8,2a.4.4,0,0,1-.582-.423l.725-4.226L.121,17.164A.4.4,0,0,1,.02,16.753Z" transform="translate(0 -11.795)" fill="#fed42d"/>
  <path id="Path_305" data-name="Path 305" d="M256.021,16.753a.4.4,0,0,1,.324-.273l4.243-.617,1.9-3.845a.4.4,0,0,1,.36-.224V22.811l-3.8,2a.4.4,0,0,1-.582-.423l.725-4.226-3.071-2.993A.4.4,0,0,1,256.021,16.753Z" transform="translate(-256.001 -11.795)" fill="#fed42d"/>
</svg>
