<svg id="wifi" xmlns="http://www.w3.org/2000/svg" width="28.886" height="21.834" viewBox="0 0 28.886 21.834">
  <g id="Group_131" data-name="Group 131">
    <path id="Path_341" data-name="Path 341" d="M72.352,165.384a1.549,1.549,0,0,0,2.19,2.19,10.7,10.7,0,0,1,15.119,0,1.547,1.547,0,1,0,2.184-2.19A13.793,13.793,0,0,0,72.352,165.384Z" transform="translate(-67.655 -155.351)" fill="#318fb5"/>
    <path id="Path_342" data-name="Path 342" d="M143.152,263.789a1.549,1.549,0,1,0,2.19,2.19,4.775,4.775,0,0,1,6.754,0,1.545,1.545,0,0,0,2.184-2.184A7.869,7.869,0,0,0,143.152,263.789Z" transform="translate(-134.276 -249.576)" fill="#318fb5"/>
    <circle id="Ellipse_15" data-name="Ellipse 15" cx="2.06" cy="2.06" r="2.06" transform="translate(12.383 17.714)" fill="#318fb5"/>
    <path id="Path_343" data-name="Path 343" d="M28.434,65.508a19.818,19.818,0,0,0-27.983,0,1.549,1.549,0,0,0,2.19,2.19,16.707,16.707,0,0,1,23.608,0,1.547,1.547,0,1,0,2.184-2.19Z" transform="translate(0 -59.725)" fill="#318fb5"/>
  </g>
</svg>
